<svg width="311" height="311" viewBox="0 0 311 311" fill="none" xmlns="http://www.w3.org/2000/svg">
<g clip-path="url(#clip0_307_2)">
<path d="M103 52C49 98.8 29.1667 154.833 26 177L103 274.5C129.833 284.667 193.9 293.4 235.5 247C277.1 200.6 288.833 136.667 289.5 110.5L220.5 43.5L103 52Z" fill="black" stroke="black"/>
<path d="M155.142 0C69.597 0 0 69.597 0 155.142C0 240.687 69.597 310.284 155.142 310.284C240.687 310.284 310.284 240.687 310.284 155.142C310.284 69.597 240.688 0 155.142 0ZM79.171 231.401C77.425 232.583 73.042 233.623 70.478 230.776L65.747 224.826C63.459 220.957 66.23 217.369 68.024 215.881C76.553 208.806 82.755 203.333 86.625 199.462C94.214 191.481 99.824 183.492 103.528 175.527C104.375 173.706 102.213 172.55 101.09 172.182C73.123 163.016 59.135 146.857 59.135 123.708C59.135 110.069 63.665 98.986 72.72 90.466C81.779 81.941 93.127 77.681 106.761 77.681C118.907 77.681 129.67 83.22 139.044 94.302C148.209 104.74 152.788 116.037 152.788 128.183C152.789 163.78 128.251 198.185 79.171 231.401ZM185.61 231.401C183.864 232.583 179.481 233.623 176.917 230.776L172.186 224.826C169.898 220.957 172.669 217.369 174.463 215.881C182.991 208.806 189.194 203.333 193.064 199.462C200.653 191.481 206.263 183.492 209.968 175.527C210.815 173.706 208.653 172.55 207.53 172.182C179.563 163.016 165.575 146.857 165.575 123.708C165.575 110.069 170.105 98.986 179.16 90.466C188.22 81.941 199.567 77.681 213.201 77.681C225.347 77.681 236.11 83.22 245.484 94.302C254.648 104.74 259.228 116.037 259.228 128.183C259.228 163.78 234.69 198.185 185.61 231.401Z" fill="white"/>
</g>
<defs>
<clipPath id="clip0_307_2">
<rect width="310.284" height="310.284" fill="white"/>
</clipPath>
</defs>
</svg>
