<svg width="214" height="241" viewBox="0 0 214 241" fill="none" xmlns="http://www.w3.org/2000/svg">
<circle cx="125.458" cy="10.4578" r="10.4578" fill="#DC602E" fill-opacity="0.8"/>
<circle cx="125.458" cy="54.3805" r="10.4578" fill="#DC602E" fill-opacity="0.6"/>
<circle cx="125.458" cy="98.3029" r="10.4578" fill="#DC602E" fill-opacity="0.5"/>
<circle cx="164.495" cy="10.4578" r="10.4578" fill="#DC602E" fill-opacity="0.8"/>
<circle cx="164.495" cy="54.3805" r="10.4578" fill="#DC602E" fill-opacity="0.6"/>
<circle cx="164.495" cy="98.3029" r="10.4578" fill="#DC602E" fill-opacity="0.5"/>
<circle cx="203.542" cy="10.4578" r="10.4578" fill="#DC602E" fill-opacity="0.8"/>
<circle cx="203.542" cy="54.3805" r="10.4578" fill="#DC602E" fill-opacity="0.6"/>
<circle cx="203.542" cy="98.3029" r="10.4578" fill="#DC602E" fill-opacity="0.5"/>
<circle cx="125.458" cy="142.226" r="10.4578" fill="#DC602E" fill-opacity="0.3"/>
<circle cx="125.458" cy="186.148" r="10.4578" fill="#DC602E" fill-opacity="0.2"/>
<circle cx="125.458" cy="230.071" r="10.4578" fill="#DC602E" fill-opacity="0.1"/>
<circle cx="164.495" cy="142.226" r="10.4578" fill="#DC602E" fill-opacity="0.3"/>
<circle cx="164.495" cy="186.148" r="10.4578" fill="#DC602E" fill-opacity="0.2"/>
<circle cx="164.495" cy="230.071" r="10.4578" fill="#DC602E" fill-opacity="0.1"/>
<circle cx="203.542" cy="142.226" r="10.4578" fill="#DC602E" fill-opacity="0.3"/>
<circle cx="203.542" cy="186.148" r="10.4578" fill="#DC602E" fill-opacity="0.2"/>
<circle cx="203.542" cy="230.071" r="10.4578" fill="#DC602E" fill-opacity="0.1"/>
<circle cx="10.4578" cy="10.4578" r="10.4578" fill="#DC602E" fill-opacity="0.8"/>
<circle cx="10.4578" cy="54.3805" r="10.4578" fill="#DC602E" fill-opacity="0.6"/>
<circle cx="10.4578" cy="98.3029" r="10.4578" fill="#DC602E" fill-opacity="0.5"/>
<circle cx="49.4949" cy="10.4578" r="10.4578" fill="#DC602E" fill-opacity="0.8"/>
<circle cx="49.4949" cy="54.3805" r="10.4578" fill="#DC602E" fill-opacity="0.6"/>
<circle cx="49.4949" cy="98.3029" r="10.4578" fill="#DC602E" fill-opacity="0.5"/>
<circle cx="88.5418" cy="10.4578" r="10.4578" fill="#DC602E" fill-opacity="0.8"/>
<circle cx="88.5418" cy="54.3805" r="10.4578" fill="#DC602E" fill-opacity="0.6"/>
<circle cx="88.5418" cy="98.3029" r="10.4578" fill="#DC602E" fill-opacity="0.5"/>
<circle cx="10.4578" cy="142.226" r="10.4578" fill="#DC602E" fill-opacity="0.3"/>
<circle cx="10.4578" cy="186.148" r="10.4578" fill="#DC602E" fill-opacity="0.2"/>
<circle cx="10.4578" cy="230.071" r="10.4578" fill="#DC602E" fill-opacity="0.1"/>
<circle cx="49.4949" cy="142.226" r="10.4578" fill="#DC602E" fill-opacity="0.3"/>
<circle cx="49.4949" cy="186.148" r="10.4578" fill="#DC602E" fill-opacity="0.2"/>
<circle cx="49.4949" cy="230.071" r="10.4578" fill="#DC602E" fill-opacity="0.1"/>
<circle cx="88.5418" cy="142.226" r="10.4578" fill="#DC602E" fill-opacity="0.3"/>
<circle cx="88.5418" cy="186.148" r="10.4578" fill="#DC602E" fill-opacity="0.2"/>
<circle cx="88.5418" cy="230.071" r="10.4578" fill="#DC602E" fill-opacity="0.1"/>
</svg>
