<svg width="60" height="60" viewBox="0 0 60 60" fill="none" xmlns="http://www.w3.org/2000/svg">
<path d="M49.7467 0H10.2533C4.59057 0 0 4.59057 0 10.2533V49.7467C0 55.4094 4.59057 60 10.2533 60H49.7467C55.4094 60 60 55.4094 60 49.7467V10.2533C60 4.59057 55.4094 0 49.7467 0Z" fill="#212738"/>
<path d="M41.1675 59.9999V36.954H48.8993L50.059 27.9747H41.1675V22.2637C41.1675 19.663 41.8924 17.8707 45.6177 17.8707H50.3709V9.84901C48.0696 9.60831 45.757 9.491 43.4431 9.49758C36.59 9.49758 31.8982 13.6797 31.8982 21.3588V27.9791H24.1445V36.954H31.8982V59.9911L41.1675 59.9999Z" fill="white"/>
</svg>
