<svg width="60" height="60" viewBox="0 0 60 60" fill="none" xmlns="http://www.w3.org/2000/svg">
<path fill-rule="evenodd" clip-rule="evenodd" d="M6.66667 60H53.3333C57.0152 60 60 57.0152 60 53.3333V6.66667C60 2.98477 57.0152 0 53.3333 0H6.66667C2.98477 0 0 2.98477 0 6.66667V53.3333C0 57.0152 2.98477 60 6.66667 60Z" fill="#212738"/>
<path fill-rule="evenodd" clip-rule="evenodd" d="M51.6673 51.6666H42.7637V36.5017C42.7637 32.3439 41.1838 30.0204 37.8929 30.0204C34.3128 30.0204 32.4424 32.4383 32.4424 36.5017V51.6666H23.8618V22.7777H32.4424V26.669C32.4424 26.669 35.0224 21.8951 41.1528 21.8951C47.2804 21.8951 51.6673 25.637 51.6673 33.3759V51.6666ZM13.6251 18.9949C10.7024 18.9949 8.33398 16.608 8.33398 13.6641C8.33398 10.7202 10.7024 8.33325 13.6251 8.33325C16.5479 8.33325 18.9148 10.7202 18.9148 13.6641C18.9148 16.608 16.5479 18.9949 13.6251 18.9949ZM9.19444 51.6666H18.1418V22.7777H9.19444V51.6666Z" fill="white"/>
</svg>
