<svg width="58" height="58" viewBox="0 0 58 58" fill="none" xmlns="http://www.w3.org/2000/svg">
<path d="M53.1665 40.8902V48.1402C53.1692 48.8132 53.0313 49.4794 52.7617 50.0961C52.4921 50.7128 52.0966 51.2663 51.6007 51.7213C51.1047 52.1763 50.5192 52.5227 49.8816 52.7384C49.244 52.954 48.5685 53.0341 47.8981 52.9735C40.4616 52.1655 33.3184 49.6243 27.0423 45.5543C21.2032 41.8439 16.2527 36.8934 12.5423 31.0543C8.45808 24.7497 5.91638 17.5717 5.12313 10.1018C5.06274 9.43353 5.14216 8.75999 5.35634 8.12408C5.57052 7.48817 5.91476 6.90382 6.36715 6.40824C6.81954 5.91266 7.37016 5.5167 7.98396 5.24558C8.59776 4.97446 9.26129 4.83412 9.9323 4.83349H17.1823C18.3551 4.82194 19.4921 5.23726 20.3814 6.00202C21.2706 6.76679 21.8515 7.82882 22.0156 8.99015C22.3216 11.3103 22.8891 13.5884 23.7073 15.781C24.0324 16.646 24.1028 17.586 23.9101 18.4898C23.7173 19.3935 23.2696 20.2231 22.6198 20.8802L19.5506 23.9493C22.9909 29.9996 28.0004 35.0091 34.0506 38.4493L37.1198 35.3802C37.7769 34.7304 38.6064 34.2826 39.5102 34.0899C40.4139 33.8971 41.354 33.9675 42.219 34.2927C44.4115 35.1108 46.6896 35.6783 49.0098 35.9843C50.1837 36.1499 51.2559 36.7412 52.0223 37.6458C52.7887 38.5503 53.1959 39.705 53.1665 40.8902Z" fill="#212738" stroke="black" stroke-width="2" stroke-linecap="round" stroke-linejoin="round"/>
</svg>
