<svg width="60" height="60" viewBox="0 0 60 60" fill="none" xmlns="http://www.w3.org/2000/svg">
<path d="M49.7467 0H10.2533C4.59057 0 0 4.59057 0 10.2533V49.7467C0 55.4094 4.59057 60 10.2533 60H49.7467C55.4094 60 60 55.4094 60 49.7467V10.2533C60 4.59057 55.4094 0 49.7467 0Z" fill="#212738"/>
<path d="M39.5556 53.797H20.4459C16.3681 53.797 12.4572 52.177 9.57372 49.2936C6.69024 46.4101 5.07031 42.4992 5.07031 38.4214V21.5785C5.07031 17.5006 6.69024 13.5898 9.57372 10.7063C12.4572 7.8228 16.3681 6.20288 20.4459 6.20288H39.5556C43.6313 6.20985 47.5381 7.83202 50.4201 10.714C53.3021 13.596 54.9242 17.5028 54.9312 21.5785V38.417C54.9318 40.4365 54.5345 42.4363 53.7621 44.3023C52.9896 46.1683 51.8572 47.8638 50.4293 49.292C49.0015 50.7202 47.3063 51.8532 45.4406 52.6261C43.5749 53.3991 41.5751 53.797 39.5556 53.797ZM20.4459 9.61626C17.2744 9.61975 14.2338 10.8812 11.9912 13.1238C9.74861 15.3664 8.48718 18.407 8.4837 21.5785V38.417C8.48602 41.5888 9.74707 44.6301 11.9899 46.873C14.2328 49.1158 17.2741 50.3769 20.4459 50.3792H39.5556C42.7267 50.3757 45.7669 49.1141 48.0088 46.8714C50.2507 44.6287 51.5111 41.5881 51.5134 38.417V21.5785C51.5099 18.4077 50.2491 15.3678 48.0075 13.1253C45.7658 10.8829 42.7263 9.62091 39.5556 9.61626H20.4459Z" fill="white"/>
<path d="M30.0002 43.6889C27.2916 43.6898 24.6436 42.8873 22.3911 41.383C20.1386 39.8787 18.3828 37.7402 17.3459 35.238C16.309 32.7357 16.0374 29.9821 16.5656 27.3255C17.0938 24.6689 18.3981 22.2286 20.3134 20.3133C22.2286 18.3981 24.6689 17.0938 27.3255 16.5656C29.9821 16.0374 32.7357 16.309 35.238 17.3459C37.7402 18.3828 39.8787 20.1386 41.383 22.3911C42.8873 24.6436 43.6898 27.2916 43.6889 30.0002C43.6842 33.6292 42.2405 37.1083 39.6744 39.6744C37.1083 42.2405 33.6292 43.6842 30.0002 43.6889ZM30.0002 19.7249C27.9678 19.724 25.9807 20.3259 24.2904 21.4545C22.6 22.583 21.2823 24.1875 20.5039 26.065C19.7256 27.9425 19.5214 30.0086 19.9174 32.0021C20.3134 33.9956 21.2917 35.8269 22.7285 37.2644C24.1654 38.7018 25.9963 39.6809 27.9896 40.0778C29.9829 40.4746 32.0492 40.2713 33.927 39.4938C35.8048 38.7162 37.4098 37.3992 38.5391 35.7093C39.6684 34.0195 40.2711 32.0327 40.2711 30.0002C40.2688 27.2765 39.1861 24.6649 37.2605 22.7386C35.335 20.8122 32.7239 19.7284 30.0002 19.7249Z" fill="white"/>
<path d="M46.54 16.0215C46.54 16.5838 46.3732 17.1335 46.0607 17.601C45.7482 18.0685 45.3041 18.4328 44.7844 18.6478C44.2648 18.8628 43.6931 18.9189 43.1416 18.8088C42.5902 18.6988 42.0837 18.4277 41.6864 18.0297C41.2891 17.6318 41.0187 17.1249 40.9095 16.5733C40.8004 16.0217 40.8573 15.45 41.0731 14.9307C41.2889 14.4115 41.6539 13.9679 42.1219 13.6561C42.5899 13.3443 43.1398 13.1783 43.7022 13.1792C44.0752 13.1792 44.4446 13.2527 44.7892 13.3956C45.1338 13.5385 45.4468 13.748 45.7104 14.012C45.974 14.2759 46.1829 14.5893 46.3253 14.9341C46.4677 15.2789 46.5406 15.6484 46.54 16.0215Z" fill="white"/>
</svg>
