<svg width="18" height="18" viewBox="0 0 18 18" fill="none" xmlns="http://www.w3.org/2000/svg">
<path d="M15.3769 2.61905C14.5476 1.78559 13.5599 1.12475 12.4712 0.6751C11.3826 0.225445 10.2149 -0.0040321 9.03618 5.36127e-05C4.09749 5.36127e-05 0.0723619 4.00505 0.0723619 8.91905C0.0723619 10.4941 0.488442 12.0241 1.26633 13.3741L0 18.0001L4.74874 16.7581C6.0603 17.4691 7.53467 17.8471 9.03618 17.8471C13.9749 17.8471 18 13.8421 18 8.92805C18 6.54305 17.0683 4.30205 15.3769 2.61905ZM9.03618 16.3351C7.69749 16.3351 6.38593 15.9751 5.23719 15.3001L4.96583 15.1381L2.14372 15.8761L2.89447 13.1401L2.71357 12.8611C1.96982 11.6793 1.5749 10.3134 1.57387 8.91905C1.57387 4.83305 4.9206 1.50305 9.02713 1.50305C11.0171 1.50305 12.8894 2.27705 14.2915 3.68105C14.9857 4.36862 15.5358 5.18645 15.91 6.08714C16.2842 6.98782 16.475 7.95345 16.4714 8.92805C16.4894 13.0141 13.1427 16.3351 9.03618 16.3351ZM13.1246 10.7911C12.8985 10.6831 11.795 10.1431 11.596 10.0621C11.3879 9.99005 11.2432 9.95405 11.0894 10.1701C10.9357 10.3951 10.5106 10.8991 10.3839 11.0431C10.2573 11.1961 10.1216 11.2141 9.89548 11.0971C9.66935 10.9891 8.94573 10.7461 8.09548 9.99005C7.42613 9.39605 6.98291 8.66705 6.84724 8.44205C6.7206 8.21705 6.82914 8.10005 6.94673 7.98305C7.04623 7.88405 7.17286 7.72205 7.28141 7.59605C7.38995 7.47005 7.43518 7.37105 7.50754 7.22705C7.5799 7.07405 7.54372 6.94805 7.48945 6.84005C7.43518 6.73205 6.98291 5.63405 6.80201 5.18405C6.6211 4.75205 6.43116 4.80605 6.29548 4.79705H5.86131C5.70754 4.79705 5.47236 4.85105 5.26432 5.07605C5.06533 5.30105 4.48643 5.84105 4.48643 6.93905C4.48643 8.03705 5.29146 9.09905 5.4 9.24305C5.50854 9.39605 6.98291 11.6461 9.22613 12.6091C9.7598 12.8431 10.1759 12.9781 10.5015 13.0771C11.0352 13.2481 11.5236 13.2211 11.9126 13.1671C12.3467 13.1041 13.2422 12.6271 13.4231 12.1051C13.6131 11.5831 13.6131 11.1421 13.5497 11.0431C13.4864 10.9441 13.3508 10.8991 13.1246 10.7911Z" fill="#ECEBED"/>
</svg>
