<svg width="163" height="163" viewBox="0 0 163 163" fill="none" xmlns="http://www.w3.org/2000/svg">
<path d="M138.55 89.65V114.1L114.1 89.65H65.2C60.877 89.65 56.731 87.9327 53.6742 84.8758C50.6173 81.819 48.9 77.673 48.9 73.35V16.3C48.9 7.335 56.235 0 65.2 0H146.7C151.023 0 155.169 1.71732 158.226 4.77416C161.283 7.831 163 11.977 163 16.3V73.35C163 77.673 161.283 81.819 158.226 84.8758C155.169 87.9327 151.023 89.65 146.7 89.65H138.55ZM114.1 105.95V122.25C114.1 126.573 112.383 130.719 109.326 133.776C106.269 136.833 102.123 138.55 97.8 138.55H48.9L24.45 163V138.55H16.3C11.977 138.55 7.831 136.833 4.77416 133.776C1.71732 130.719 0 126.573 0 122.25V65.2C0 56.235 7.335 48.9 16.3 48.9H32.6V73.35C32.6 81.9961 36.0346 90.288 42.1483 96.4017C48.262 102.515 56.5539 105.95 65.2 105.95H114.1Z" fill="white"/>
</svg>
