<svg width="100" height="100" viewBox="0 0 100 100" fill="none" xmlns="http://www.w3.org/2000/svg">
<path d="M87.5001 29.1667H62.5001C61.3951 29.1667 60.3353 29.6057 59.5539 30.3871C58.7725 31.1685 58.3335 32.2283 58.3335 33.3333V45.8333H50.0001V16.6667C50.0001 15.5616 49.5612 14.5018 48.7798 13.7204C47.9984 12.939 46.9386 12.5 45.8335 12.5H12.5002C11.3951 12.5 10.3353 12.939 9.55388 13.7204C8.77248 14.5018 8.3335 15.5616 8.3335 16.6667V83.3333C8.3335 84.4384 8.77248 85.4982 9.55388 86.2796C10.3353 87.061 11.3951 87.5 12.5002 87.5H87.5001C88.6052 87.5 89.665 87.061 90.4464 86.2796C91.2278 85.4982 91.6668 84.4384 91.6668 83.3333V33.3333C91.6668 32.2283 91.2278 31.1685 90.4464 30.3871C89.665 29.6057 88.6052 29.1667 87.5001 29.1667ZM33.3335 25H41.6668V33.3333H33.3335V25ZM25.0002 66.6667H16.6668V58.3333H25.0002V66.6667ZM25.0002 50H16.6668V41.6667H25.0002V50ZM25.0002 33.3333H16.6668V25H25.0002V33.3333ZM41.6668 66.6667H33.3335V58.3333H41.6668V66.6667ZM41.6668 50H33.3335V41.6667H41.6668V50ZM79.1668 66.6667H70.8335V58.3333H79.1668V66.6667ZM79.1668 50H70.8335V41.6667H79.1668V50Z" fill="white"/>
</svg>
