<svg width="100" height="100" viewBox="0 0 100 100" fill="none" xmlns="http://www.w3.org/2000/svg">
<path d="M25 31.25H50V37.5H25V31.25ZM25 18.75H62.5V25H25V18.75ZM25 6.25H62.5V12.5H25V6.25Z" fill="white"/>
<path d="M14.7219 87.5L32.3188 56.2625L55.55 76.5437C56.2522 77.1686 57.0864 77.6271 57.9904 77.8849C58.8944 78.1428 59.8448 78.1934 60.7711 78.033C61.6973 77.8726 62.5755 77.5054 63.3401 76.9586C64.1048 76.4118 64.7362 75.6996 65.1875 74.875L86.9687 42.3656L81.7781 38.8844L59.9031 71.5344L59.6844 71.8562L36.45 51.575C35.748 50.9537 34.9153 50.498 34.0136 50.2416C33.1118 49.9851 32.164 49.9346 31.2401 50.0935C30.3161 50.2525 29.4397 50.617 28.6756 51.1601C27.9114 51.7032 27.279 52.411 26.825 53.2313L12.5 78.6969V6.25H6.25V87.5C6.25165 89.1571 6.91067 90.7458 8.08241 91.9176C9.25415 93.0893 10.8429 93.7483 12.5 93.75H93.75V87.5H14.7219Z" fill="white"/>
</svg>
